<svg id="Capa_1" enable-background="new 0 0 512 512" height="512" viewBox="0 0 512 512" width="512" xmlns="http://www.w3.org/2000/svg" xmlns:xlink="http://www.w3.org/1999/xlink"><linearGradient id="SVGID_1_" gradientUnits="userSpaceOnUse" x1="74.98" x2="437.018" y1="437.019" y2="74.98"><stop offset="0" stop-color="#0072ff"/><stop offset=".2462" stop-color="#279cf6"/><stop offset=".5952" stop-color="#5ad1ea"/><stop offset=".8572" stop-color="#79f2e3"/><stop offset="1" stop-color="#85ffe0"/></linearGradient><radialGradient id="SVGID_2_" cx="256" cy="256" gradientUnits="userSpaceOnUse" r="256"><stop offset="0" stop-color="#0056e0"/><stop offset=".2874" stop-color="#0088ca" stop-opacity=".713"/><stop offset=".6143" stop-color="#00bab4" stop-opacity=".386"/><stop offset=".8622" stop-color="#00daa6" stop-opacity=".138"/><stop offset="1" stop-color="#00e5a1" stop-opacity="0"/></radialGradient><linearGradient id="SVGID_3_" gradientUnits="userSpaceOnUse" x1="-4.384" x2="485.588" y1="516.28" y2="26.309"><stop offset="0" stop-color="#c2fff0"/><stop offset=".2696" stop-color="#c6fff1"/><stop offset=".5169" stop-color="#d1fff4"/><stop offset=".7555" stop-color="#e3fff8"/><stop offset=".9873" stop-color="#fdffff"/><stop offset="1" stop-color="#fff"/></linearGradient><linearGradient id="lg1"><stop offset="0" stop-color="#009ed8"/><stop offset="1" stop-color="#d4f4f4"/></linearGradient><linearGradient id="SVGID_4_" gradientUnits="userSpaceOnUse" x1="-29.298" x2="508.543" xlink:href="#lg1" y1="541.195" y2="3.355"/><linearGradient id="SVGID_5_" gradientUnits="userSpaceOnUse" x1="-76.431" x2="452.539" xlink:href="#lg1" y1="574.053" y2="45.083"/><linearGradient id="lg2"><stop offset="0" stop-color="#230be0"/><stop offset=".3483" stop-color="#1561c7"/><stop offset=".6623" stop-color="#0aa9b2"/><stop offset=".8867" stop-color="#03d5a6"/><stop offset="1" stop-color="#00e5a1"/></linearGradient><linearGradient id="SVGID_6_" gradientUnits="userSpaceOnUse" x1="153.334" x2="217.677" xlink:href="#lg2" y1="358.563" y2="294.22"/><linearGradient id="SVGID_7_" gradientUnits="userSpaceOnUse" x1="158.579" x2="223.19" xlink:href="#lg2" y1="320.782" y2="256.171"/><linearGradient id="SVGID_8_" gradientUnits="userSpaceOnUse" x1="191.208" x2="255.82" xlink:href="#lg2" y1="353.412" y2="288.8"/><g><circle cx="256" cy="256" fill="url(#SVGID_1_)" r="256"/><circle cx="256" cy="256" fill="url(#SVGID_2_)" r="256"/><path d="m418.354 101.579c-.063-2.122-1.015-4.097-2.477-5.56-1.462-1.462-3.436-2.412-5.56-2.477-107.826-3.347-177.687 45.222-233.476 100.686-50.579 50.72-106.245 140.939-117.462 160.308-2.533 4.284-2.957 9.627-.94 14.641 2.732 6.787 9.603 11.286 16.88 11.497 18.192.524 36.383.967 54.574 1.329.363 18.191.806 36.382 1.33 54.574.212 7.277 4.711 14.147 11.497 16.88 5.014 2.017 10.359 1.593 14.641-.94 19.37-11.216 109.586-66.884 160.307-117.462 55.462-55.791 104.035-125.65 100.686-233.476z" fill="url(#SVGID_3_)"/><path d="m237.857 180.828c-13.18 10.175-26.293 21.81-39.458 34.989-37.81 37.887-80.101 101.868-100.624 135.178 20.732.385 41.464.695 62.195.931.236 20.731.546 41.463.93 62.195 33.313-20.525 97.293-62.815 135.179-100.624 29.579-29.55 51.399-58.768 66.294-89.28 2.888-5.915 5.531-11.902 7.935-17.967-44.257-8.659-88.426-17.238-132.451-25.422z" fill="url(#SVGID_4_)"/><path d="m370.308 206.25c10.189-25.697 16.037-52.827 17.611-82.272-36.394 1.944-69.261 10.419-100.24 25.545-16.917 8.26-33.426 18.65-49.822 31.305 38.594 28.897 87.981 37.213 132.451 25.422z" fill="url(#SVGID_5_)"/><path d="m192.333 330.457c-2.982 2.986-7.835 2.962-10.845-.048-3.009-3.01-3.034-7.862-.048-10.845s7.848-2.968 10.854.039c3.005 3.006 3.022 7.868.039 10.854z" fill="url(#SVGID_6_)"/><path d="m197.713 292.521c-2.997 2.995-7.865 2.986-10.868-.015-3.006-3.001-3.012-7.856-.012-10.85s7.868-2.993 10.871.007c3.003 2.999 3.007 7.863.009 10.858z" fill="url(#SVGID_7_)"/><path d="m230.335 325.158c-2.994 3-7.849 2.994-10.85-.012s-3.011-7.871-.015-10.869c2.993-2.998 7.858-2.994 10.858.009 3.001 3.004 2.999 7.872.007 10.872z" fill="url(#SVGID_8_)"/></g></svg>